<svg width="12" height="13" viewBox="0 0 12 13" fill="none" xmlns="http://www.w3.org/2000/svg">
<path fill-rule="evenodd" clip-rule="evenodd" d="M6.00004 0.199097C5.7239 0.199097 5.50004 0.422955 5.50004 0.699097V5.69911H0.5C0.223858 5.69911 0 5.92296 0 6.19911C0 6.47525 0.223858 6.69911 0.5 6.69911H5.50004V11.6991C5.50004 11.9752 5.7239 12.1991 6.00004 12.1991C6.27618 12.1991 6.50004 11.9752 6.50004 11.6991V6.69911H11.5C11.7761 6.69911 12 6.47525 12 6.19911C12 5.92296 11.7761 5.69911 11.5 5.69911H6.50004V0.699097C6.50004 0.422954 6.27618 0.199097 6.00004 0.199097Z" fill="#353131"/>
</svg>
